<svg xmlns="http://www.w3.org/2000/svg" xmlns:xlink="http://www.w3.org/1999/xlink" width="200" zoomAndPan="magnify" viewBox="0 0 150 37.5" height="50" preserveAspectRatio="xMidYMid meet" version="1.0"><defs><clipPath id="28444fe725"><path d="M 132 11 L 149 11 L 149 32.8125 L 132 32.8125 Z M 132 11 " clip-rule="nonzero"/></clipPath></defs><g clip-path="url(#28444fe725)"><path fill="#fdfbfc" d="M 135.875 32.644531 C 135.910156 32.53125 135.988281 32.386719 136.03125 32.332031 C 136.078125 32.261719 136.1875 32.015625 136.277344 31.769531 C 136.367188 31.523438 136.542969 31.078125 136.667969 30.761719 C 136.789062 30.460938 137.289062 29.207031 137.78125 27.988281 L 138.671875 25.757812 L 138.335938 25.019531 C 138.160156 24.605469 137.835938 23.878906 137.625 23.40625 C 137.414062 22.925781 137.078125 22.144531 136.867188 21.671875 C 135.699219 19.03125 134.804688 16.980469 134.238281 15.707031 C 133.992188 15.125 133.671875 14.417969 133.546875 14.136719 C 133.179688 13.34375 132.566406 11.867188 132.566406 11.765625 C 132.566406 11.71875 133.570312 11.675781 134.796875 11.675781 L 137.035156 11.675781 L 137.421875 12.546875 C 137.902344 13.601562 138.238281 14.375 138.691406 15.480469 C 138.882812 15.941406 139.160156 16.601562 139.304688 16.9375 C 139.449219 17.273438 139.738281 17.957031 139.953125 18.449219 C 140.164062 18.941406 140.417969 19.558594 140.53125 19.824219 C 140.640625 20.082031 140.777344 20.296875 140.832031 20.296875 C 140.933594 20.296875 140.910156 20.363281 141.699219 18.28125 C 142.011719 17.453125 142.367188 16.535156 142.492188 16.242188 C 142.601562 15.941406 142.792969 15.46875 142.914062 15.179688 C 143.28125 14.226562 143.558594 13.535156 143.792969 12.964844 C 143.925781 12.660156 144.074219 12.257812 144.128906 12.066406 L 144.226562 11.730469 L 146.488281 11.699219 L 148.738281 11.675781 L 148.683594 11.921875 C 148.628906 12.144531 147.390625 15.269531 146.902344 16.398438 C 146.699219 16.859375 146.3125 17.820312 146.019531 18.5625 C 145.898438 18.875 145.699219 19.378906 145.574219 19.679688 C 145.453125 19.992188 145.265625 20.464844 145.152344 20.742188 C 145.042969 21.023438 144.851562 21.515625 144.71875 21.839844 C 144.597656 22.152344 144.371094 22.691406 144.25 23.015625 C 144.117188 23.328125 143.917969 23.832031 143.804688 24.136719 C 143.683594 24.425781 143.492188 24.917969 143.371094 25.222656 C 143.25 25.535156 143.058594 26.015625 142.9375 26.320312 C 142.691406 26.957031 142.28125 27.953125 142.089844 28.414062 C 142.011719 28.601562 141.609375 29.609375 141.199219 30.652344 C 140.785156 31.703125 140.398438 32.621094 140.332031 32.699219 C 140.253906 32.800781 139.652344 32.835938 138.015625 32.835938 C 135.953125 32.835938 135.808594 32.824219 135.875 32.644531 Z M 135.875 32.644531 " fill-opacity="1" fill-rule="nonzero"/></g><path fill="#fdfbfc" d="M 101.105469 27.496094 C 100.136719 27.382812 99.625 27.203125 98.210938 26.507812 C 97.296875 26.0625 96.917969 25.792969 96.128906 25.019531 C 95.59375 24.503906 95.125 23.96875 95.082031 23.832031 C 95.039062 23.710938 94.972656 23.574219 94.925781 23.542969 C 94.757812 23.429688 94.234375 22.253906 93.980469 21.4375 C 93.578125 20.207031 93.535156 19.3125 93.535156 13.421875 L 93.535156 8.058594 L 95.628906 7.355469 L 97.710938 6.660156 L 97.710938 11.675781 L 102.164062 11.675781 L 102.164062 15.59375 L 97.699219 15.59375 L 97.722656 17.464844 C 97.742188 19.601562 97.867188 20.261719 98.390625 21.148438 C 99.058594 22.265625 100.09375 22.972656 101.429688 23.21875 L 102.164062 23.351562 L 102.164062 27.574219 L 101.808594 27.5625 C 101.609375 27.550781 101.296875 27.515625 101.105469 27.496094 Z M 101.105469 27.496094 " fill-opacity="1" fill-rule="nonzero"/><path fill="#fdfbfc" d="M 10.957031 27.347656 C 9.742188 27.089844 9.308594 26.980469 8.863281 26.832031 C 8.136719 26.597656 6.722656 25.894531 6.722656 25.78125 C 6.722656 25.714844 6.65625 25.667969 6.566406 25.667969 C 6.480469 25.667969 6.257812 25.546875 6.078125 25.390625 C 5.886719 25.234375 5.699219 25.109375 5.644531 25.109375 C 5.519531 25.109375 4.472656 24.023438 3.871094 23.261719 C 3.070312 22.265625 2.28125 20.8125 1.933594 19.734375 C 1.3125 17.777344 1.234375 15.648438 1.710938 13.691406 C 1.945312 12.75 2.992188 10.332031 3.183594 10.332031 C 3.226562 10.332031 3.273438 10.253906 3.273438 10.164062 C 3.273438 10.019531 3.550781 9.660156 4.5625 8.53125 C 4.964844 8.070312 5.988281 7.242188 6.445312 6.984375 C 6.691406 6.851562 6.96875 6.695312 7.058594 6.636719 C 7.59375 6.289062 8.382812 5.875 8.617188 5.832031 C 8.773438 5.785156 9.25 5.664062 9.675781 5.539062 C 10.789062 5.226562 11.179688 5.171875 12.324219 5.171875 C 13.539062 5.171875 14.175781 5.25 15.289062 5.53125 C 16.023438 5.71875 17.394531 6.257812 17.859375 6.535156 C 17.949219 6.59375 18.128906 6.683594 18.25 6.738281 C 18.382812 6.792969 18.550781 6.917969 18.628906 7.019531 C 18.707031 7.117188 18.828125 7.199219 18.886719 7.199219 C 19.195312 7.199219 21.648438 9.726562 21.648438 10.050781 C 21.648438 10.164062 18.394531 12.390625 18.117188 12.480469 C 18.050781 12.503906 17.769531 12.234375 17.492188 11.886719 C 17.003906 11.285156 16.78125 11.105469 15.632812 10.421875 C 14.351562 9.636719 12.238281 9.390625 10.734375 9.839844 C 9.398438 10.242188 8.816406 10.578125 7.894531 11.507812 C 7.324219 12.078125 6.859375 12.660156 6.625 13.109375 C 6.179688 13.96875 6.078125 14.285156 5.898438 15.449219 C 5.789062 16.199219 5.789062 16.523438 5.910156 17.296875 C 6 17.800781 6.121094 18.269531 6.179688 18.335938 C 6.234375 18.394531 6.277344 18.527344 6.277344 18.640625 C 6.277344 19.445312 8.09375 21.582031 9.285156 22.199219 C 10.453125 22.792969 11.324219 22.984375 12.691406 22.9375 C 14.707031 22.871094 16.078125 22.234375 17.460938 20.734375 L 18.09375 20.050781 L 18.382812 20.261719 C 18.539062 20.375 18.761719 20.519531 18.875 20.585938 C 18.984375 20.652344 19.175781 20.789062 19.285156 20.890625 C 19.398438 21 19.53125 21.078125 19.585938 21.078125 C 19.640625 21.078125 19.777344 21.15625 19.886719 21.269531 C 20 21.371094 20.1875 21.503906 20.300781 21.570312 C 20.855469 21.898438 21.648438 22.488281 21.648438 22.570312 C 21.648438 22.667969 21.367188 23.027344 20.644531 23.902344 C 19.574219 25.164062 17.023438 26.65625 15.085938 27.136719 C 14.109375 27.382812 11.703125 27.503906 10.957031 27.347656 Z M 10.957031 27.347656 " fill-opacity="1" fill-rule="nonzero"/><path fill="#fdfbfc" d="M 27.816406 27.304688 C 26.835938 27.113281 25.644531 26.699219 25.476562 26.496094 C 25.410156 26.410156 25.265625 26.339844 25.167969 26.339844 C 25.066406 26.339844 24.988281 26.296875 24.988281 26.242188 C 24.988281 26.183594 24.867188 26.117188 24.730469 26.074219 C 24.265625 25.960938 22.636719 24.125 22.179688 23.207031 C 21.390625 21.617188 21.113281 20.160156 21.300781 18.640625 C 21.46875 17.339844 22.058594 15.480469 22.316406 15.480469 C 22.382812 15.480469 22.425781 15.402344 22.425781 15.304688 C 22.425781 15.203125 22.605469 14.921875 22.816406 14.6875 C 23.027344 14.441406 23.207031 14.207031 23.207031 14.148438 C 23.207031 13.9375 24.832031 12.761719 25.691406 12.347656 C 26.625 11.898438 26.96875 11.753906 27.160156 11.730469 C 27.226562 11.71875 27.371094 11.664062 27.492188 11.609375 C 27.617188 11.5625 28.316406 11.519531 29.054688 11.519531 C 30.667969 11.519531 31.679688 11.789062 33.105469 12.558594 C 34.308594 13.21875 35.445312 14.40625 36.167969 15.761719 C 36.449219 16.277344 36.679688 16.804688 36.679688 16.914062 C 36.679688 17.027344 36.726562 17.160156 36.78125 17.21875 C 37.117188 17.5625 37.160156 20.207031 36.847656 21.359375 C 36.605469 22.289062 35.902344 23.800781 35.523438 24.203125 C 35.390625 24.359375 35.234375 24.574219 35.199219 24.683594 C 35.109375 24.929688 33.765625 25.996094 32.984375 26.441406 C 31.503906 27.28125 29.476562 27.617188 27.816406 27.304688 Z M 30.066406 23.074219 C 30.101562 23.015625 30.246094 22.984375 30.378906 22.984375 C 30.523438 22.984375 30.835938 22.847656 31.070312 22.691406 C 31.59375 22.332031 32.449219 21.4375 32.449219 21.226562 C 32.449219 21.148438 32.496094 21.078125 32.539062 21.078125 C 32.582031 21.078125 32.695312 20.84375 32.773438 20.566406 C 32.972656 19.882812 32.871094 18.570312 32.5625 17.867188 C 32.316406 17.308594 31.503906 16.378906 31.257812 16.378906 C 31.191406 16.378906 31.078125 16.308594 31.035156 16.230469 C 30.855469 15.941406 29.6875 15.671875 28.863281 15.738281 C 27.90625 15.816406 27.25 16.140625 26.515625 16.882812 C 25.578125 17.832031 25.277344 18.839844 25.542969 20.230469 C 25.878906 22.007812 27.414062 23.230469 29.253906 23.171875 C 29.675781 23.160156 30.042969 23.117188 30.066406 23.074219 Z M 30.066406 23.074219 " fill-opacity="1" fill-rule="nonzero"/><path fill="#fdfbfc" d="M 38.640625 27.167969 C 38.550781 26.945312 38.550781 11.855469 38.640625 11.628906 C 38.695312 11.472656 38.996094 11.453125 40.757812 11.453125 L 42.808594 11.453125 L 42.808594 11.957031 C 42.808594 12.234375 42.851562 12.460938 42.894531 12.460938 C 42.953125 12.460938 43.285156 12.359375 43.652344 12.222656 C 44.621094 11.878906 46.460938 11.84375 47.429688 12.167969 C 47.496094 12.179688 47.695312 12.234375 47.875 12.292969 C 48.730469 12.527344 49.6875 13.132812 50.578125 14.027344 C 51.082031 14.53125 51.492188 15.011719 51.492188 15.089844 C 51.492188 15.167969 51.570312 15.292969 51.660156 15.371094 C 51.75 15.449219 51.828125 15.59375 51.828125 15.707031 C 51.828125 15.816406 51.90625 15.929688 51.996094 15.972656 C 52.082031 16.007812 52.160156 16.132812 52.160156 16.242188 C 52.160156 16.367188 52.238281 16.679688 52.328125 16.949219 C 52.628906 17.789062 52.664062 18.4375 52.664062 22.925781 L 52.664062 27.292969 L 50.578125 27.328125 L 48.488281 27.347656 L 48.488281 23.027344 C 48.488281 17.898438 48.476562 17.832031 47.550781 16.960938 C 47.21875 16.644531 46.804688 16.355469 46.636719 16.320312 C 46.460938 16.277344 46.179688 16.210938 46.023438 16.152344 C 45.347656 15.941406 44.019531 16.488281 43.453125 17.21875 C 42.851562 17.976562 42.863281 17.898438 42.828125 22.792969 L 42.796875 27.347656 L 40.757812 27.347656 C 38.996094 27.347656 38.699219 27.328125 38.640625 27.167969 Z M 38.640625 27.167969 " fill-opacity="1" fill-rule="nonzero"/><path fill="#fdfbfc" d="M 58.5 27.046875 C 58.429688 26.878906 58.320312 26.585938 58.242188 26.398438 C 57.929688 25.667969 57.394531 24.335938 56.949219 23.207031 C 56.648438 22.445312 56.335938 21.652344 56.058594 20.96875 C 55.914062 20.632812 55.746094 20.207031 55.667969 20.015625 C 54.710938 17.675781 54.613281 17.441406 54.078125 16.097656 C 53.574219 14.832031 53.351562 14.285156 53.152344 13.824219 C 53.042969 13.566406 52.941406 13.296875 52.941406 13.242188 C 52.941406 13.1875 52.796875 12.816406 52.605469 12.4375 C 52.429688 12.054688 52.273438 11.730469 52.273438 11.710938 C 52.273438 11.6875 53.308594 11.675781 54.589844 11.675781 L 56.894531 11.675781 L 57.015625 12.046875 C 57.09375 12.234375 57.261719 12.683594 57.394531 13.019531 C 57.628906 13.613281 57.851562 14.171875 58.429688 15.707031 C 58.585938 16.109375 58.820312 16.714844 58.953125 17.050781 C 59.300781 17.933594 59.722656 19.019531 60 19.78125 C 60.136719 20.148438 60.300781 20.464844 60.371094 20.484375 C 60.4375 20.507812 60.546875 20.363281 60.613281 20.160156 C 60.667969 19.960938 60.824219 19.511719 60.960938 19.175781 C 61.082031 18.839844 61.261719 18.382812 61.339844 18.167969 C 61.425781 17.957031 61.59375 17.507812 61.726562 17.195312 C 62.195312 16.019531 62.429688 15.425781 62.519531 15.144531 C 62.574219 14.988281 62.71875 14.585938 62.851562 14.25 C 63.210938 13.367188 63.375 12.929688 63.609375 12.292969 L 63.808594 11.730469 L 66.117188 11.699219 C 67.386719 11.6875 68.421875 11.710938 68.421875 11.765625 C 68.421875 11.808594 68.375 11.898438 68.332031 11.964844 C 68.253906 12.054688 67.863281 12.972656 67.308594 14.363281 C 67.195312 14.640625 67.007812 15.136719 66.871094 15.460938 C 66.75 15.773438 66.539062 16.277344 66.425781 16.578125 C 66.125 17.316406 65.480469 18.90625 64.914062 20.296875 C 64.480469 21.347656 63.921875 22.746094 63.519531 23.765625 C 63.109375 24.828125 62.820312 25.523438 62.5625 26.09375 C 62.417969 26.417969 62.296875 26.753906 62.296875 26.84375 C 62.296875 26.921875 62.21875 27.082031 62.117188 27.167969 C 61.972656 27.316406 61.648438 27.347656 60.28125 27.347656 L 58.621094 27.347656 Z M 58.5 27.046875 " fill-opacity="1" fill-rule="nonzero"/><path fill="#fdfbfc" d="M 73.542969 27.269531 C 72.152344 27.046875 70.648438 26.429688 69.878906 25.757812 C 69.613281 25.523438 69.355469 25.332031 69.3125 25.332031 C 69.132812 25.332031 67.976562 23.742188 67.550781 22.914062 C 66.707031 21.257812 66.503906 19.152344 67.019531 17.40625 C 67.472656 15.886719 68.085938 14.832031 69.089844 13.871094 C 69.566406 13.410156 70.160156 12.929688 70.390625 12.796875 C 70.625 12.671875 70.894531 12.515625 70.984375 12.460938 C 71.351562 12.222656 72.128906 11.910156 72.21875 11.957031 C 72.261719 11.988281 72.328125 11.964844 72.363281 11.910156 C 72.398438 11.855469 72.863281 11.753906 73.386719 11.675781 C 75.070312 11.429688 76.617188 11.699219 78.222656 12.515625 C 79.792969 13.308594 80.859375 14.429688 81.605469 16.054688 C 81.839844 16.566406 82.085938 17.082031 82.128906 17.183594 C 82.296875 17.507812 82.417969 18.707031 82.441406 20.148438 L 82.464844 21.527344 L 76.917969 21.550781 L 71.371094 21.582031 L 71.90625 22.097656 C 72.195312 22.378906 72.71875 22.746094 73.066406 22.925781 C 73.65625 23.207031 73.777344 23.230469 74.703125 23.183594 C 75.761719 23.128906 76.292969 22.9375 77.085938 22.332031 L 77.453125 22.054688 L 78.867188 23.464844 L 80.269531 24.875 L 79.949219 25.234375 C 79.335938 25.882812 77.941406 26.675781 76.773438 27.070312 C 76.195312 27.257812 74.222656 27.382812 73.542969 27.269531 Z M 77.152344 16.734375 C 76.605469 16.230469 76.316406 16.054688 75.761719 15.886719 C 74.523438 15.515625 73.433594 15.671875 72.417969 16.367188 C 71.972656 16.667969 71.539062 17.140625 71.539062 17.328125 C 71.539062 17.363281 72.953125 17.386719 74.691406 17.386719 L 77.832031 17.375 Z M 77.152344 16.734375 " fill-opacity="1" fill-rule="nonzero"/><path fill="#fdfbfc" d="M 83.410156 27.167969 C 83.300781 26.867188 83.332031 20.398438 83.464844 19.398438 C 83.601562 18.257812 83.980469 17.105469 84.582031 15.917969 C 84.9375 15.234375 85.28125 14.789062 86.152344 13.914062 C 86.761719 13.296875 87.332031 12.796875 87.410156 12.796875 C 87.488281 12.796875 87.609375 12.714844 87.6875 12.628906 C 87.765625 12.539062 87.910156 12.460938 88.023438 12.460938 C 88.132812 12.460938 88.246094 12.390625 88.277344 12.300781 C 88.3125 12.222656 88.777344 12.023438 89.324219 11.855469 C 89.859375 11.6875 90.425781 11.507812 90.582031 11.453125 C 90.738281 11.394531 91.230469 11.328125 91.675781 11.292969 L 92.476562 11.238281 L 92.476562 15.46875 L 91.953125 15.539062 C 90.707031 15.695312 90.058594 16.019531 89.046875 16.980469 C 88.320312 17.675781 87.84375 18.570312 87.6875 19.523438 C 87.632812 19.914062 87.574219 21.839844 87.574219 23.800781 L 87.574219 27.347656 L 85.527344 27.347656 C 83.765625 27.347656 83.464844 27.328125 83.410156 27.167969 Z M 83.410156 27.167969 " fill-opacity="1" fill-rule="nonzero"/><path fill="#fdfbfc" d="M 108.066406 27.238281 C 105.027344 26.722656 102.820312 24.785156 101.765625 21.695312 C 101.351562 20.484375 101.328125 18.761719 101.707031 17.496094 C 101.953125 16.644531 102.109375 16.230469 102.289062 15.929688 C 102.34375 15.839844 102.488281 15.558594 102.609375 15.3125 C 102.855469 14.789062 104.179688 13.398438 104.871094 12.941406 C 105.507812 12.515625 106.5625 12 106.898438 11.957031 C 106.964844 11.945312 107.230469 11.867188 107.511719 11.789062 C 108.277344 11.550781 110.40625 11.585938 111.296875 11.84375 C 113.511719 12.480469 115.328125 13.96875 116.273438 15.929688 C 117.011719 17.453125 117.109375 17.910156 117.132812 19.871094 L 117.144531 21.472656 L 111.652344 21.472656 C 107.746094 21.472656 106.175781 21.503906 106.175781 21.59375 C 106.175781 21.660156 106.476562 21.976562 106.832031 22.289062 C 107.699219 23.050781 108.289062 23.238281 109.515625 23.183594 C 110.515625 23.128906 111.050781 22.9375 111.730469 22.355469 L 112.078125 22.066406 L 113.167969 23.074219 C 113.757812 23.632812 114.425781 24.269531 114.636719 24.492188 L 115.027344 24.898438 L 114.527344 25.34375 C 113.667969 26.09375 112.3125 26.84375 111.410156 27.070312 C 110.515625 27.292969 108.902344 27.371094 108.066406 27.238281 Z M 112.410156 17.386719 C 112.410156 17.207031 111.621094 16.378906 111.453125 16.378906 C 111.375 16.378906 111.265625 16.308594 111.21875 16.230469 C 111.109375 16.054688 110.050781 15.71875 109.515625 15.683594 C 108.9375 15.648438 108.066406 15.816406 107.621094 16.042969 C 107.175781 16.265625 106.175781 17.128906 106.175781 17.285156 C 106.175781 17.339844 107.53125 17.394531 109.269531 17.417969 C 110.964844 17.429688 112.367188 17.453125 112.386719 17.476562 C 112.398438 17.484375 112.410156 17.453125 112.410156 17.386719 Z M 112.410156 17.386719 " fill-opacity="1" fill-rule="nonzero"/><path fill="#fdfbfc" d="M 118.101562 23.519531 C 118.113281 18.605469 118.191406 18.089844 119.148438 16.230469 C 119.628906 15.3125 120.796875 13.691406 120.984375 13.691406 C 121.03125 13.691406 121.320312 13.464844 121.632812 13.1875 C 121.933594 12.90625 122.265625 12.683594 122.367188 12.683594 C 122.46875 12.683594 122.546875 12.636719 122.546875 12.570312 C 122.546875 12.269531 125.285156 11.375 126.386719 11.316406 L 127.167969 11.285156 L 127.199219 13.378906 L 127.222656 15.46875 L 126.699219 15.539062 C 125.386719 15.707031 124.71875 16.03125 123.804688 16.925781 C 122.445312 18.257812 122.324219 18.816406 122.289062 23.65625 L 122.265625 27.292969 L 120.183594 27.328125 L 118.089844 27.347656 Z M 118.101562 23.519531 " fill-opacity="1" fill-rule="nonzero"/><path fill="#fdfbfc" d="M 128.15625 27.179688 C 128.136719 27.125 128.125 22.332031 128.136719 16.554688 L 128.167969 6.042969 L 130.117188 5.382812 C 131.1875 5.027344 132.121094 4.734375 132.199219 4.734375 C 132.324219 4.734375 132.34375 6.917969 132.324219 15.984375 L 132.289062 27.25 L 130.242188 27.269531 C 128.960938 27.28125 128.179688 27.25 128.15625 27.179688 Z M 128.15625 27.179688 " fill-opacity="1" fill-rule="nonzero"/></svg>