<svg xmlns="http://www.w3.org/2000/svg" xmlns:xlink="http://www.w3.org/1999/xlink" width="200" zoomAndPan="magnify" viewBox="0 0 150 37.5" height="50" preserveAspectRatio="xMidYMid meet" version="1.0"><defs><clipPath id="1d6ff2783d"><path d="M 132 11 L 149 11 L 149 32.8125 L 132 32.8125 Z M 132 11 " clip-rule="nonzero"/></clipPath></defs><g clip-path="url(#1d6ff2783d)"><path fill="#d61a3e" d="M 135.871094 32.597656 C 135.90625 32.484375 135.984375 32.339844 136.027344 32.28125 C 136.074219 32.214844 136.183594 31.96875 136.273438 31.722656 C 136.363281 31.476562 136.539062 31.027344 136.664062 30.714844 C 136.785156 30.414062 137.285156 29.160156 137.777344 27.9375 L 138.667969 25.710938 L 138.332031 24.972656 C 138.15625 24.558594 137.832031 23.832031 137.621094 23.359375 C 137.410156 22.878906 137.074219 22.09375 136.863281 21.625 C 135.695312 18.984375 134.804688 16.933594 134.234375 15.65625 C 133.992188 15.074219 133.667969 14.371094 133.546875 14.089844 C 133.175781 13.296875 132.566406 11.816406 132.566406 11.71875 C 132.566406 11.671875 133.566406 11.628906 134.792969 11.628906 L 137.03125 11.628906 L 137.421875 12.5 C 137.898438 13.554688 138.234375 14.324219 138.691406 15.433594 C 138.878906 15.894531 139.15625 16.554688 139.300781 16.890625 C 139.449219 17.226562 139.738281 17.90625 139.949219 18.402344 C 140.160156 18.894531 140.417969 19.507812 140.527344 19.777344 C 140.640625 20.035156 140.773438 20.246094 140.828125 20.246094 C 140.929688 20.246094 140.90625 20.316406 141.695312 18.234375 C 142.007812 17.402344 142.363281 16.484375 142.488281 16.195312 C 142.597656 15.894531 142.789062 15.421875 142.910156 15.132812 C 143.277344 14.179688 143.558594 13.484375 143.789062 12.914062 C 143.925781 12.613281 144.070312 12.210938 144.125 12.019531 L 144.226562 11.683594 L 146.484375 11.648438 L 148.734375 11.628906 L 148.679688 11.875 C 148.625 12.097656 147.386719 15.222656 146.898438 16.351562 C 146.699219 16.8125 146.308594 17.773438 146.019531 18.511719 C 145.894531 18.824219 145.695312 19.328125 145.574219 19.632812 C 145.449219 19.945312 145.261719 20.414062 145.148438 20.695312 C 145.039062 20.976562 144.847656 21.46875 144.714844 21.792969 C 144.59375 22.105469 144.371094 22.644531 144.246094 22.96875 C 144.113281 23.28125 143.914062 23.785156 143.800781 24.085938 C 143.679688 24.378906 143.488281 24.871094 143.367188 25.171875 C 143.246094 25.488281 143.054688 25.96875 142.933594 26.269531 C 142.6875 26.910156 142.277344 27.90625 142.085938 28.363281 C 142.007812 28.554688 141.609375 29.5625 141.195312 30.601562 C 140.785156 31.65625 140.394531 32.574219 140.328125 32.652344 C 140.25 32.753906 139.648438 32.785156 138.011719 32.785156 C 135.949219 32.785156 135.804688 32.773438 135.871094 32.597656 Z M 135.871094 32.597656 " fill-opacity="1" fill-rule="nonzero"/></g><path fill="#d61a3e" d="M 101.105469 27.445312 C 100.136719 27.335938 99.621094 27.15625 98.207031 26.460938 C 97.296875 26.011719 96.917969 25.746094 96.125 24.972656 C 95.589844 24.457031 95.125 23.917969 95.078125 23.785156 C 95.035156 23.664062 94.96875 23.527344 94.921875 23.496094 C 94.757812 23.382812 94.234375 22.207031 93.976562 21.390625 C 93.574219 20.15625 93.53125 19.261719 93.53125 13.375 L 93.53125 8.011719 L 95.625 7.304688 L 97.707031 6.613281 L 97.707031 11.628906 L 102.160156 11.628906 L 102.160156 15.546875 L 97.695312 15.546875 L 97.71875 17.414062 C 97.742188 19.554688 97.863281 20.214844 98.386719 21.097656 C 99.054688 22.21875 100.089844 22.921875 101.425781 23.167969 L 102.160156 23.304688 L 102.160156 27.523438 L 101.804688 27.511719 C 101.605469 27.503906 101.292969 27.46875 101.105469 27.445312 Z M 101.105469 27.445312 " fill-opacity="1" fill-rule="nonzero"/><path fill="#d61a3e" d="M 10.953125 27.300781 C 9.738281 27.042969 9.304688 26.929688 8.859375 26.785156 C 8.136719 26.550781 6.71875 25.84375 6.71875 25.734375 C 6.71875 25.667969 6.652344 25.621094 6.566406 25.621094 C 6.476562 25.621094 6.253906 25.5 6.074219 25.339844 C 5.886719 25.183594 5.695312 25.0625 5.640625 25.0625 C 5.519531 25.0625 4.472656 23.976562 3.871094 23.214844 C 3.066406 22.21875 2.277344 20.761719 1.933594 19.6875 C 1.308594 17.730469 1.230469 15.601562 1.710938 13.640625 C 1.941406 12.703125 2.988281 10.285156 3.179688 10.285156 C 3.222656 10.285156 3.269531 10.207031 3.269531 10.117188 C 3.269531 9.96875 3.546875 9.613281 4.558594 8.480469 C 4.960938 8.023438 5.984375 7.195312 6.441406 6.9375 C 6.6875 6.800781 6.964844 6.644531 7.054688 6.589844 C 7.589844 6.242188 8.378906 5.828125 8.613281 5.785156 C 8.769531 5.738281 9.25 5.617188 9.671875 5.492188 C 10.785156 5.179688 11.175781 5.121094 12.324219 5.121094 C 13.535156 5.121094 14.171875 5.203125 15.285156 5.480469 C 16.019531 5.671875 17.390625 6.207031 17.855469 6.488281 C 17.945312 6.542969 18.125 6.632812 18.246094 6.691406 C 18.378906 6.746094 18.546875 6.871094 18.625 6.96875 C 18.703125 7.070312 18.828125 7.148438 18.882812 7.148438 C 19.195312 7.148438 21.644531 9.679688 21.644531 10.003906 C 21.644531 10.117188 18.390625 12.34375 18.113281 12.433594 C 18.046875 12.457031 17.769531 12.1875 17.488281 11.839844 C 17 11.234375 16.777344 11.054688 15.628906 10.375 C 14.347656 9.589844 12.234375 9.34375 10.730469 9.792969 C 9.394531 10.195312 8.8125 10.53125 7.890625 11.460938 C 7.320312 12.03125 6.855469 12.613281 6.621094 13.058594 C 6.175781 13.921875 6.074219 14.234375 5.898438 15.398438 C 5.785156 16.148438 5.785156 16.476562 5.90625 17.246094 C 5.996094 17.75 6.121094 18.222656 6.175781 18.289062 C 6.230469 18.34375 6.273438 18.480469 6.273438 18.589844 C 6.273438 19.398438 8.089844 21.535156 9.28125 22.152344 C 10.453125 22.746094 11.320312 22.933594 12.691406 22.890625 C 14.707031 22.824219 16.074219 22.183594 17.457031 20.683594 L 18.089844 20 L 18.378906 20.214844 C 18.535156 20.324219 18.757812 20.472656 18.871094 20.539062 C 18.980469 20.605469 19.171875 20.742188 19.28125 20.839844 C 19.394531 20.953125 19.527344 21.03125 19.582031 21.03125 C 19.640625 21.03125 19.773438 21.109375 19.882812 21.222656 C 19.996094 21.324219 20.183594 21.457031 20.296875 21.523438 C 20.851562 21.847656 21.644531 22.441406 21.644531 22.519531 C 21.644531 22.621094 21.367188 22.980469 20.640625 23.851562 C 19.574219 25.117188 17.023438 26.605469 15.085938 27.089844 C 14.105469 27.335938 11.699219 27.457031 10.953125 27.300781 Z M 10.953125 27.300781 " fill-opacity="1" fill-rule="nonzero"/><path fill="#d61a3e" d="M 27.8125 27.257812 C 26.832031 27.066406 25.640625 26.652344 25.476562 26.449219 C 25.40625 26.359375 25.261719 26.292969 25.164062 26.292969 C 25.0625 26.292969 24.984375 26.25 24.984375 26.191406 C 24.984375 26.136719 24.863281 26.070312 24.730469 26.023438 C 24.261719 25.914062 22.636719 24.078125 22.179688 23.160156 C 21.386719 21.570312 21.109375 20.113281 21.296875 18.589844 C 21.464844 17.292969 22.054688 15.433594 22.3125 15.433594 C 22.378906 15.433594 22.421875 15.355469 22.421875 15.253906 C 22.421875 15.152344 22.601562 14.875 22.8125 14.640625 C 23.023438 14.390625 23.203125 14.15625 23.203125 14.101562 C 23.203125 13.890625 24.828125 12.714844 25.6875 12.300781 C 26.621094 11.851562 26.96875 11.707031 27.15625 11.683594 C 27.222656 11.671875 27.367188 11.617188 27.492188 11.558594 C 27.613281 11.515625 28.316406 11.46875 29.050781 11.46875 C 30.664062 11.46875 31.679688 11.738281 33.101562 12.511719 C 34.304688 13.171875 35.441406 14.359375 36.164062 15.714844 C 36.445312 16.230469 36.679688 16.753906 36.679688 16.867188 C 36.679688 16.980469 36.722656 17.113281 36.777344 17.167969 C 37.113281 17.515625 37.15625 20.15625 36.84375 21.3125 C 36.601562 22.242188 35.898438 23.75 35.519531 24.15625 C 35.386719 24.3125 35.230469 24.523438 35.195312 24.636719 C 35.109375 24.882812 33.761719 25.945312 32.980469 26.394531 C 31.5 27.234375 29.472656 27.570312 27.8125 27.257812 Z M 30.0625 23.023438 C 30.097656 22.96875 30.242188 22.933594 30.375 22.933594 C 30.519531 22.933594 30.832031 22.800781 31.066406 22.644531 C 31.589844 22.285156 32.445312 21.390625 32.445312 21.175781 C 32.445312 21.097656 32.492188 21.03125 32.535156 21.03125 C 32.578125 21.03125 32.691406 20.796875 32.769531 20.515625 C 32.96875 19.832031 32.871094 18.523438 32.558594 17.816406 C 32.3125 17.257812 31.5 16.328125 31.253906 16.328125 C 31.1875 16.328125 31.078125 16.261719 31.03125 16.183594 C 30.855469 15.894531 29.683594 15.625 28.859375 15.691406 C 27.902344 15.769531 27.246094 16.09375 26.511719 16.832031 C 25.574219 17.785156 25.273438 18.792969 25.542969 20.179688 C 25.875 21.960938 27.414062 23.179688 29.25 23.125 C 29.671875 23.113281 30.039062 23.070312 30.0625 23.023438 Z M 30.0625 23.023438 " fill-opacity="1" fill-rule="nonzero"/><path fill="#d61a3e" d="M 38.636719 27.121094 C 38.550781 26.898438 38.550781 11.804688 38.636719 11.582031 C 38.695312 11.425781 38.996094 11.402344 40.753906 11.402344 L 42.804688 11.402344 L 42.804688 11.90625 C 42.804688 12.1875 42.847656 12.410156 42.890625 12.410156 C 42.949219 12.410156 43.28125 12.308594 43.648438 12.175781 C 44.617188 11.828125 46.457031 11.796875 47.425781 12.121094 C 47.492188 12.132812 47.691406 12.1875 47.871094 12.242188 C 48.726562 12.476562 49.6875 13.082031 50.578125 13.976562 C 51.078125 14.480469 51.488281 14.964844 51.488281 15.042969 C 51.488281 15.121094 51.566406 15.242188 51.65625 15.320312 C 51.746094 15.398438 51.824219 15.546875 51.824219 15.65625 C 51.824219 15.769531 51.902344 15.882812 51.992188 15.925781 C 52.082031 15.960938 52.160156 16.082031 52.160156 16.195312 C 52.160156 16.316406 52.234375 16.632812 52.324219 16.898438 C 52.625 17.738281 52.660156 18.390625 52.660156 22.878906 L 52.660156 27.246094 L 50.578125 27.277344 L 48.484375 27.300781 L 48.484375 22.980469 C 48.484375 17.851562 48.472656 17.785156 47.546875 16.910156 C 47.214844 16.597656 46.800781 16.308594 46.632812 16.273438 C 46.457031 16.230469 46.179688 16.160156 46.023438 16.105469 C 45.34375 15.894531 44.015625 16.441406 43.449219 17.167969 C 42.847656 17.929688 42.859375 17.851562 42.824219 22.746094 L 42.792969 27.300781 L 40.753906 27.300781 C 38.996094 27.300781 38.695312 27.277344 38.636719 27.121094 Z M 38.636719 27.121094 " fill-opacity="1" fill-rule="nonzero"/><path fill="#d61a3e" d="M 58.496094 27 C 58.429688 26.832031 58.316406 26.539062 58.238281 26.347656 C 57.925781 25.621094 57.390625 24.289062 56.945312 23.160156 C 56.644531 22.398438 56.335938 21.601562 56.054688 20.917969 C 55.910156 20.582031 55.746094 20.15625 55.667969 19.96875 C 54.707031 17.628906 54.609375 17.394531 54.074219 16.050781 C 53.574219 14.785156 53.351562 14.234375 53.148438 13.777344 C 53.039062 13.519531 52.9375 13.25 52.9375 13.195312 C 52.9375 13.136719 52.792969 12.769531 52.605469 12.386719 C 52.425781 12.007812 52.269531 11.683594 52.269531 11.660156 C 52.269531 11.636719 53.304688 11.628906 54.585938 11.628906 L 56.890625 11.628906 L 57.015625 11.996094 C 57.089844 12.1875 57.257812 12.636719 57.390625 12.972656 C 57.625 13.5625 57.847656 14.125 58.429688 15.65625 C 58.585938 16.0625 58.816406 16.664062 58.953125 17 C 59.296875 17.886719 59.71875 18.972656 60 19.734375 C 60.132812 20.101562 60.300781 20.414062 60.367188 20.4375 C 60.433594 20.460938 60.542969 20.316406 60.609375 20.113281 C 60.667969 19.910156 60.824219 19.464844 60.957031 19.128906 C 61.078125 18.792969 61.257812 18.332031 61.335938 18.121094 C 61.425781 17.90625 61.589844 17.460938 61.726562 17.148438 C 62.191406 15.972656 62.425781 15.378906 62.515625 15.097656 C 62.570312 14.941406 62.714844 14.539062 62.847656 14.203125 C 63.207031 13.316406 63.371094 12.882812 63.605469 12.242188 L 63.808594 11.683594 L 66.113281 11.648438 C 67.382812 11.636719 68.417969 11.660156 68.417969 11.71875 C 68.417969 11.761719 68.375 11.851562 68.328125 11.917969 C 68.25 12.007812 67.859375 12.925781 67.304688 14.3125 C 67.191406 14.59375 67.003906 15.085938 66.871094 15.410156 C 66.746094 15.726562 66.535156 16.230469 66.425781 16.53125 C 66.125 17.269531 65.476562 18.859375 64.910156 20.246094 C 64.476562 21.300781 63.917969 22.699219 63.519531 23.71875 C 63.105469 24.78125 62.816406 25.476562 62.558594 26.046875 C 62.414062 26.371094 62.292969 26.707031 62.292969 26.796875 C 62.292969 26.875 62.214844 27.03125 62.113281 27.121094 C 61.96875 27.265625 61.648438 27.300781 60.277344 27.300781 L 58.617188 27.300781 Z M 58.496094 27 " fill-opacity="1" fill-rule="nonzero"/><path fill="#d61a3e" d="M 73.539062 27.222656 C 72.148438 27 70.644531 26.382812 69.875 25.710938 C 69.609375 25.476562 69.351562 25.285156 69.308594 25.285156 C 69.128906 25.285156 67.972656 23.695312 67.550781 22.867188 C 66.703125 21.210938 66.503906 19.105469 67.015625 17.359375 C 67.472656 15.835938 68.082031 14.785156 69.085938 13.820312 C 69.566406 13.363281 70.15625 12.882812 70.390625 12.746094 C 70.621094 12.625 70.890625 12.46875 70.980469 12.410156 C 71.347656 12.175781 72.125 11.863281 72.214844 11.90625 C 72.261719 11.941406 72.328125 11.917969 72.359375 11.863281 C 72.394531 11.804688 72.859375 11.707031 73.382812 11.628906 C 75.066406 11.382812 76.613281 11.648438 78.21875 12.46875 C 79.789062 13.261719 80.855469 14.382812 81.605469 16.003906 C 81.835938 16.519531 82.082031 17.035156 82.128906 17.136719 C 82.292969 17.460938 82.417969 18.65625 82.4375 20.101562 L 82.460938 21.480469 L 76.914062 21.5 L 71.367188 21.535156 L 71.902344 22.050781 C 72.191406 22.328125 72.714844 22.699219 73.0625 22.878906 C 73.652344 23.160156 73.773438 23.179688 74.699219 23.136719 C 75.757812 23.078125 76.292969 22.890625 77.082031 22.285156 L 77.449219 22.003906 L 78.863281 23.414062 L 80.265625 24.828125 L 79.945312 25.183594 C 79.332031 25.835938 77.941406 26.628906 76.769531 27.019531 C 76.191406 27.210938 74.21875 27.335938 73.539062 27.222656 Z M 77.148438 16.6875 C 76.601562 16.183594 76.3125 16.003906 75.757812 15.835938 C 74.519531 15.46875 73.429688 15.625 72.414062 16.316406 C 71.96875 16.621094 71.535156 17.089844 71.535156 17.28125 C 71.535156 17.316406 72.949219 17.335938 74.6875 17.335938 L 77.828125 17.324219 Z M 77.148438 16.6875 " fill-opacity="1" fill-rule="nonzero"/><path fill="#d61a3e" d="M 83.40625 27.121094 C 83.296875 26.820312 83.328125 20.347656 83.464844 19.351562 C 83.597656 18.210938 83.976562 17.058594 84.578125 15.871094 C 84.933594 15.1875 85.277344 14.738281 86.148438 13.867188 C 86.761719 13.25 87.328125 12.746094 87.40625 12.746094 C 87.484375 12.746094 87.605469 12.667969 87.683594 12.578125 C 87.761719 12.488281 87.90625 12.410156 88.019531 12.410156 C 88.128906 12.410156 88.242188 12.34375 88.273438 12.253906 C 88.308594 12.175781 88.777344 11.972656 89.320312 11.804688 C 89.855469 11.636719 90.421875 11.460938 90.578125 11.402344 C 90.734375 11.347656 91.226562 11.28125 91.671875 11.246094 L 92.472656 11.191406 L 92.472656 15.421875 L 91.949219 15.488281 C 90.703125 15.644531 90.054688 15.972656 89.042969 16.933594 C 88.320312 17.628906 87.839844 18.523438 87.683594 19.476562 C 87.628906 19.867188 87.574219 21.792969 87.574219 23.75 L 87.574219 27.300781 L 85.523438 27.300781 C 83.765625 27.300781 83.464844 27.277344 83.40625 27.121094 Z M 83.40625 27.121094 " fill-opacity="1" fill-rule="nonzero"/><path fill="#d61a3e" d="M 108.0625 27.1875 C 105.023438 26.671875 102.820312 24.738281 101.761719 21.648438 C 101.347656 20.4375 101.328125 18.714844 101.707031 17.449219 C 101.949219 16.597656 102.105469 16.183594 102.285156 15.882812 C 102.339844 15.792969 102.484375 15.511719 102.605469 15.265625 C 102.851562 14.738281 104.175781 13.351562 104.867188 12.890625 C 105.503906 12.46875 106.5625 11.953125 106.894531 11.90625 C 106.960938 11.894531 107.230469 11.816406 107.507812 11.738281 C 108.277344 11.503906 110.402344 11.539062 111.292969 11.796875 C 113.511719 12.433594 115.324219 13.921875 116.273438 15.882812 C 117.007812 17.402344 117.105469 17.863281 117.128906 19.820312 L 117.140625 21.421875 L 111.648438 21.421875 C 107.742188 21.421875 106.171875 21.457031 106.171875 21.546875 C 106.171875 21.613281 106.472656 21.925781 106.828125 22.242188 C 107.695312 23 108.285156 23.191406 109.511719 23.136719 C 110.515625 23.078125 111.050781 22.890625 111.726562 22.308594 L 112.074219 22.015625 L 113.164062 23.023438 C 113.753906 23.582031 114.421875 24.222656 114.636719 24.445312 L 115.023438 24.847656 L 114.523438 25.296875 C 113.664062 26.046875 112.308594 26.796875 111.40625 27.019531 C 110.515625 27.246094 108.898438 27.324219 108.0625 27.1875 Z M 112.40625 17.335938 C 112.40625 17.15625 111.617188 16.328125 111.449219 16.328125 C 111.371094 16.328125 111.261719 16.261719 111.214844 16.183594 C 111.105469 16.003906 110.046875 15.667969 109.511719 15.636719 C 108.933594 15.601562 108.0625 15.769531 107.617188 15.992188 C 107.171875 16.21875 106.171875 17.078125 106.171875 17.234375 C 106.171875 17.292969 107.53125 17.347656 109.265625 17.371094 C 110.960938 17.382812 112.363281 17.402344 112.386719 17.425781 C 112.394531 17.4375 112.40625 17.402344 112.40625 17.335938 Z M 112.40625 17.335938 " fill-opacity="1" fill-rule="nonzero"/><path fill="#d61a3e" d="M 118.097656 23.472656 C 118.109375 18.558594 118.1875 18.042969 119.144531 16.183594 C 119.625 15.265625 120.792969 13.640625 120.984375 13.640625 C 121.027344 13.640625 121.316406 13.417969 121.628906 13.136719 C 121.929688 12.859375 122.261719 12.636719 122.363281 12.636719 C 122.464844 12.636719 122.542969 12.589844 122.542969 12.523438 C 122.542969 12.21875 125.28125 11.324219 126.382812 11.269531 L 127.164062 11.234375 L 127.195312 13.328125 L 127.21875 15.421875 L 126.695312 15.488281 C 125.382812 15.65625 124.714844 15.980469 123.800781 16.878906 C 122.441406 18.210938 122.320312 18.769531 122.285156 23.605469 L 122.261719 27.246094 L 120.179688 27.277344 L 118.085938 27.300781 Z M 118.097656 23.472656 " fill-opacity="1" fill-rule="nonzero"/><path fill="#d61a3e" d="M 128.15625 27.132812 C 128.132812 27.078125 128.121094 22.285156 128.132812 16.507812 L 128.164062 5.996094 L 130.113281 5.335938 C 131.183594 4.976562 132.121094 4.6875 132.199219 4.6875 C 132.320312 4.6875 132.34375 6.871094 132.320312 15.9375 L 132.285156 27.199219 L 130.238281 27.222656 C 128.957031 27.234375 128.175781 27.199219 128.15625 27.132812 Z M 128.15625 27.132812 " fill-opacity="1" fill-rule="nonzero"/></svg>